# xmcd
#
# Track frame offsets:
#        187
#        15602
#        34957
#        52339
#        68194
#        84102
#        103502
#        121482
#        144834
#        160934
#        174487
#        192979
#
# Disc length: 2818 seconds
#
# Revision: 0
# Processed by: cddbd v1.5.1PL0 Copyright (c) Steve Scherf et al.
# Submitted via: ExactAudioCopy v0.95a5
#
DISCID=9e0b000c
DTITLE=Olivia Newton John - Back With A Heart
DYEAR=1998
DGENRE=Ballad
TTITLE0=Precious Love
TTITLE1=Closer To Me
TTITLE2=Fight For Our Love
TTITLE3=Spinning His Wheels
TTITLE4=Under My Skin
TTITLE5=Love Is A Gift
TTITLE6=I Don't Wanna Say Goodnight
TTITLE7=Don't Say That
TTITLE8=Attention
TTITLE9=Back With A Heart
TTITLE10=I Honestly Love You
TTITLE11=What's Forever for
EXTD=
EXTT0=
EXTT1=
EXTT2=
EXTT3=
EXTT4=
EXTT5=
EXTT6=
EXTT7=
EXTT8=
EXTT9=
EXTT10=
EXTT11=
PLAYORDER=
